<svg width="32" height="32" viewBox="0 0 32 32" fill="none" xmlns="http://www.w3.org/2000/svg">
<path d="M8 0C6.9 0 6 0.9 6 2V30C6 31.1 6.9 32 8 32H28C29.1 32 30 31.1 30 30V8L22 0H8Z" fill="#E2E5E7"/>
<path d="M24 8H30L22 0V6C22 7.1 22.9 8 24 8Z" fill="#B0B7BD"/>
<path d="M30 14L24 8H30V14Z" fill="#CAD1D8"/>
<path d="M26 26C26 26.55 25.55 27 25 27H3C2.45 27 2 26.55 2 26V16C2 15.45 2.45 15 3 15H25C25.55 15 26 15.45 26 16V26Z" fill="#F16142"/>
<path d="M5.3079 24.0639C4.96657 24.0639 4.7959 23.8879 4.7959 23.5359V18.8799C4.7959 18.5332 4.96923 18.3599 5.3159 18.3599H7.2439C7.86257 18.3599 8.3399 18.5146 8.6759 18.8239C9.0119 19.1332 9.1799 19.5652 9.1799 20.1199C9.1799 20.6746 9.0119 21.1092 8.6759 21.4239C8.3399 21.7332 7.86257 21.8879 7.2439 21.8879H5.8199V23.5359C5.8199 23.8879 5.64923 24.0639 5.3079 24.0639ZM5.8199 21.0799H7.0839C7.8199 21.0799 8.1879 20.7599 8.1879 20.1199C8.1879 19.4852 7.8199 19.1679 7.0839 19.1679H5.8199V21.0799Z" fill="white"/>
<path d="M10.5266 24.0639C10.1853 24.0639 10.0146 23.8879 10.0146 23.5359V18.8799C10.0146 18.5332 10.188 18.3599 10.5346 18.3599H12.4626C13.0813 18.3599 13.5586 18.5146 13.8946 18.8239C14.2306 19.1332 14.3986 19.5652 14.3986 20.1199C14.3986 20.6746 14.2306 21.1092 13.8946 21.4239C13.5586 21.7332 13.0813 21.8879 12.4626 21.8879H11.0386V23.5359C11.0386 23.8879 10.868 24.0639 10.5266 24.0639ZM11.0386 21.0799H12.3026C13.0386 21.0799 13.4066 20.7599 13.4066 20.1199C13.4066 19.4852 13.0386 19.1679 12.3026 19.1679H11.0386V21.0799Z" fill="white"/>
<path d="M16.9648 24.0639C16.6234 24.0639 16.4528 23.8879 16.4528 23.5359V19.2159H14.8928C14.5994 19.2159 14.4528 19.0719 14.4528 18.7839C14.4528 18.5012 14.5994 18.3599 14.8928 18.3599H19.0368C19.3301 18.3599 19.4768 18.5012 19.4768 18.7839C19.4768 19.0719 19.3301 19.2159 19.0368 19.2159H17.4768V23.5359C17.4768 23.8879 17.3061 24.0639 16.9648 24.0639Z" fill="white"/>
<path d="M20.2535 24.0639C20.1202 24.0639 20.0109 24.0292 19.9255 23.9599C19.8402 23.8852 19.7895 23.7946 19.7735 23.6879C19.7629 23.5759 19.8002 23.4639 19.8855 23.3519L21.5495 21.1279L19.9735 19.0159C19.8882 18.8986 19.8509 18.7866 19.8615 18.6799C19.8722 18.5679 19.9202 18.4772 20.0055 18.4079C20.0909 18.3332 20.1975 18.2959 20.3255 18.2959C20.5229 18.2959 20.7015 18.4052 20.8615 18.6239L22.1335 20.3839L23.4055 18.6239C23.5655 18.4052 23.7469 18.2959 23.9495 18.2959C24.0829 18.2959 24.1922 18.3306 24.2775 18.3999C24.3629 18.4692 24.4109 18.5599 24.4215 18.6719C24.4322 18.7786 24.3922 18.8932 24.3015 19.0159L22.7255 21.1279L24.3815 23.3519C24.4669 23.4639 24.5042 23.5759 24.4935 23.6879C24.4829 23.7946 24.4349 23.8852 24.3495 23.9599C24.2642 24.0292 24.1522 24.0639 24.0135 24.0639C23.8215 24.0639 23.6429 23.9519 23.4775 23.7279L22.1335 21.8879L20.7975 23.7279C20.6322 23.9519 20.4509 24.0639 20.2535 24.0639Z" fill="white"/>
<path d="M25 27H6V28H25C25.55 28 26 27.55 26 27V26C26 26.55 25.55 27 25 27Z" fill="#CAD1D8"/>
</svg>
