<svg width="32" height="32" viewBox="0 0 32 32" fill="none" xmlns="http://www.w3.org/2000/svg">
<path d="M8 0C6.9 0 6 0.9 6 2V30C6 31.1 6.9 32 8 32H28C29.1 32 30 31.1 30 30V8L22 0H8Z" fill="#E2E5E7"/>
<path d="M24 8H30L22 0V6C22 7.1 22.9 8 24 8Z" fill="#B0B7BD"/>
<path d="M30 14L24 8H30V14Z" fill="#CAD1D8"/>
<path d="M26 26C26 26.55 25.55 27 25 27H3C2.45 27 2 26.55 2 26V16C2 15.45 2.45 15 3 15H25C25.55 15 26 15.45 26 16V26Z" fill="#45C068"/>
<path d="M7.90951 24.0638C7.77618 24.0638 7.66685 24.0291 7.58151 23.9598C7.49618 23.8851 7.44551 23.7945 7.42951 23.6878C7.41885 23.5758 7.45618 23.4638 7.54151 23.3518L9.20551 21.1278L7.62951 19.0158C7.54418 18.8985 7.50685 18.7865 7.51751 18.6798C7.52818 18.5678 7.57618 18.4771 7.66151 18.4078C7.74685 18.3331 7.85351 18.2958 7.98151 18.2958C8.17885 18.2958 8.35751 18.4051 8.51751 18.6238L9.78951 20.3838L11.0615 18.6238C11.2215 18.4051 11.4028 18.2958 11.6055 18.2958C11.7388 18.2958 11.8482 18.3305 11.9335 18.3998C12.0188 18.4691 12.0668 18.5598 12.0775 18.6718C12.0882 18.7785 12.0482 18.8931 11.9575 19.0158L10.3815 21.1278L12.0375 23.3518C12.1228 23.4638 12.1602 23.5758 12.1495 23.6878C12.1388 23.7945 12.0908 23.8851 12.0055 23.9598C11.9202 24.0291 11.8082 24.0638 11.6695 24.0638C11.4775 24.0638 11.2988 23.9518 11.1335 23.7278L9.78951 21.8878L8.45351 23.7278C8.28818 23.9518 8.10685 24.0638 7.90951 24.0638Z" fill="white"/>
<path d="M13.6125 23.9998C13.2658 23.9998 13.0925 23.8238 13.0925 23.4718V18.8558C13.0925 18.5091 13.2632 18.3358 13.6045 18.3358C13.9458 18.3358 14.1165 18.5091 14.1165 18.8558V23.1278H16.4365C16.7352 23.1278 16.8845 23.2718 16.8845 23.5598C16.8845 23.8531 16.7352 23.9998 16.4365 23.9998H13.6125Z" fill="white"/>
<path d="M19.4115 24.0798C19.0542 24.0798 18.7048 24.0398 18.3635 23.9598C18.0275 23.8798 17.7342 23.7598 17.4835 23.5998C17.3608 23.5198 17.2862 23.4211 17.2595 23.3038C17.2328 23.1865 17.2408 23.0771 17.2835 22.9758C17.3315 22.8691 17.4035 22.7971 17.4995 22.7598C17.6008 22.7171 17.7155 22.7358 17.8435 22.8158C18.0782 22.9545 18.3262 23.0558 18.5875 23.1198C18.8488 23.1838 19.1235 23.2158 19.4115 23.2158C19.8328 23.2158 20.1395 23.1465 20.3315 23.0078C20.5235 22.8638 20.6195 22.6798 20.6195 22.4558C20.6195 22.2691 20.5502 22.1225 20.4115 22.0158C20.2782 21.9091 20.0462 21.8211 19.7155 21.7518L18.8355 21.5678C17.8328 21.3545 17.3315 20.8398 17.3315 20.0238C17.3315 19.6718 17.4248 19.3651 17.6115 19.1038C17.7982 18.8425 18.0568 18.6398 18.3875 18.4958C18.7182 18.3518 19.0995 18.2798 19.5315 18.2798C19.8515 18.2798 20.1555 18.3198 20.4435 18.3998C20.7315 18.4798 20.9902 18.5971 21.2195 18.7518C21.3262 18.8265 21.3902 18.9198 21.4115 19.0318C21.4328 19.1385 21.4195 19.2398 21.3715 19.3358C21.3235 19.4265 21.2462 19.4905 21.1395 19.5278C21.0382 19.5598 20.9182 19.5358 20.7795 19.4558C20.5822 19.3438 20.3822 19.2638 20.1795 19.2158C19.9768 19.1678 19.7582 19.1438 19.5235 19.1438C19.1555 19.1438 18.8675 19.2211 18.6595 19.3758C18.4515 19.5305 18.3475 19.7331 18.3475 19.9838C18.3475 20.1758 18.4115 20.3305 18.5395 20.4478C18.6675 20.5598 18.8862 20.6478 19.1955 20.7118L20.0675 20.8958C20.5955 21.0078 20.9875 21.1838 21.2435 21.4238C21.5048 21.6638 21.6355 21.9838 21.6355 22.3838C21.6355 22.7198 21.5448 23.0158 21.3635 23.2718C21.1822 23.5278 20.9235 23.7278 20.5875 23.8718C20.2568 24.0105 19.8648 24.0798 19.4115 24.0798Z" fill="white"/>
<path d="M25 27H6V28H25C25.55 28 26 27.55 26 27V26C26 26.55 25.55 27 25 27Z" fill="#CAD1D8"/>
</svg>
