<svg width="32" height="32" viewBox="0 0 32 32" fill="none" xmlns="http://www.w3.org/2000/svg">
<path d="M8 0C6.9 0 6 0.9 6 2V30C6 31.1 6.9 32 8 32H28C29.1 32 30 31.1 30 30V8L22 0H8Z" fill="#E2E5E7"/>
<path d="M24 8H30L22 0V6C22 7.1 22.9 8 24 8Z" fill="#B0B7BD"/>
<path d="M30 14L24 8H30V14Z" fill="#CAD1D8"/>
<path d="M26 26C26 26.55 25.55 27 25 27H3C2.45 27 2 26.55 2 26V16C2 15.45 2.45 15 3 15H25C25.55 15 26 15.45 26 16V26Z" fill="#4288F1"/>
<path d="M3.62505 23.9998C3.26239 23.9998 3.08105 23.8185 3.08105 23.4558V18.9038C3.08105 18.5411 3.26239 18.3598 3.62505 18.3598H5.17705C6.12105 18.3598 6.84905 18.6025 7.36105 19.0878C7.87839 19.5731 8.13705 20.2691 8.13705 21.1758C8.13705 22.0771 7.87839 22.7731 7.36105 23.2638C6.84905 23.7545 6.12105 23.9998 5.17705 23.9998H3.62505ZM4.10505 23.1518H5.11305C6.41439 23.1518 7.06505 22.4931 7.06505 21.1758C7.06505 19.8638 6.41439 19.2078 5.11305 19.2078H4.10505V23.1518Z" fill="white"/>
<path d="M11.7028 24.0798C11.1588 24.0798 10.6815 23.9598 10.2708 23.7198C9.86547 23.4798 9.5508 23.1438 9.3268 22.7118C9.1028 22.2745 8.9908 21.7625 8.9908 21.1758C8.9908 20.5838 9.1028 20.0718 9.3268 19.6398C9.5508 19.2078 9.86547 18.8745 10.2708 18.6398C10.6761 18.3998 11.1535 18.2798 11.7028 18.2798C12.2521 18.2798 12.7295 18.3998 13.1348 18.6398C13.5401 18.8745 13.8548 19.2078 14.0788 19.6398C14.3028 20.0718 14.4148 20.5811 14.4148 21.1678C14.4148 21.7598 14.3028 22.2745 14.0788 22.7118C13.8548 23.1438 13.5401 23.4798 13.1348 23.7198C12.7295 23.9598 12.2521 24.0798 11.7028 24.0798ZM11.7028 23.1998C12.2201 23.1998 12.6228 23.0211 12.9108 22.6638C13.1988 22.3065 13.3428 21.8105 13.3428 21.1758C13.3428 20.5358 13.1988 20.0398 12.9108 19.6878C12.6281 19.3358 12.2255 19.1598 11.7028 19.1598C11.1855 19.1598 10.7828 19.3358 10.4948 19.6878C10.2068 20.0398 10.0628 20.5358 10.0628 21.1758C10.0628 21.8105 10.2068 22.3065 10.4948 22.6638C10.7828 23.0211 11.1855 23.1998 11.7028 23.1998Z" fill="white"/>
<path d="M18.0801 24.0798C17.4934 24.0798 16.9894 23.9625 16.5681 23.7278C16.1521 23.4878 15.8321 23.1518 15.6081 22.7198C15.3841 22.2825 15.2721 21.7678 15.2721 21.1758C15.2721 20.5838 15.3841 20.0718 15.6081 19.6398C15.8321 19.2078 16.1521 18.8745 16.5681 18.6398C16.9894 18.3998 17.4934 18.2798 18.0801 18.2798C18.3734 18.2798 18.6614 18.3171 18.9441 18.3918C19.2267 18.4665 19.4747 18.5731 19.6881 18.7118C19.8267 18.8025 19.9094 18.9118 19.9361 19.0398C19.9627 19.1625 19.9467 19.2771 19.8881 19.3838C19.8294 19.4851 19.7414 19.5545 19.6241 19.5918C19.5067 19.6238 19.3761 19.5918 19.2321 19.4958C19.0667 19.3891 18.8881 19.3118 18.6961 19.2638C18.5041 19.2158 18.3094 19.1918 18.1121 19.1918C17.5414 19.1918 17.1067 19.3651 16.8081 19.7118C16.5094 20.0531 16.3601 20.5411 16.3601 21.1758C16.3601 21.8105 16.5094 22.3011 16.8081 22.6478C17.1067 22.9945 17.5414 23.1678 18.1121 23.1678C18.3147 23.1678 18.5147 23.1438 18.7121 23.0958C18.9094 23.0425 19.0961 22.9625 19.2721 22.8558C19.4161 22.7651 19.5441 22.7358 19.6561 22.7678C19.7681 22.7998 19.8507 22.8665 19.9041 22.9678C19.9627 23.0638 19.9814 23.1705 19.9601 23.2878C19.9387 23.4051 19.8667 23.5091 19.7441 23.5998C19.5307 23.7545 19.2747 23.8745 18.9761 23.9598C18.6827 24.0398 18.3841 24.0798 18.0801 24.0798Z" fill="white"/>
<path d="M20.9684 24.0638C20.835 24.0638 20.7257 24.0291 20.6404 23.9598C20.555 23.8851 20.5044 23.7945 20.4884 23.6878C20.4777 23.5758 20.515 23.4638 20.6004 23.3518L22.2644 21.1278L20.6884 19.0158C20.603 18.8985 20.5657 18.7865 20.5764 18.6798C20.587 18.5678 20.635 18.4771 20.7204 18.4078C20.8057 18.3331 20.9124 18.2958 21.0404 18.2958C21.2377 18.2958 21.4164 18.4051 21.5764 18.6238L22.8484 20.3838L24.1204 18.6238C24.2804 18.4051 24.4617 18.2958 24.6644 18.2958C24.7977 18.2958 24.907 18.3305 24.9924 18.3998C25.0777 18.4691 25.1257 18.5598 25.1364 18.6718C25.147 18.7785 25.107 18.8931 25.0164 19.0158L23.4404 21.1278L25.0964 23.3518C25.1817 23.4638 25.219 23.5758 25.2084 23.6878C25.1977 23.7945 25.1497 23.8851 25.0644 23.9598C24.979 24.0291 24.867 24.0638 24.7284 24.0638C24.5364 24.0638 24.3577 23.9518 24.1924 23.7278L22.8484 21.8878L21.5124 23.7278C21.347 23.9518 21.1657 24.0638 20.9684 24.0638Z" fill="white"/>
<path d="M25 27H6V28H25C25.55 28 26 27.55 26 27V26C26 26.55 25.55 27 25 27Z" fill="#CAD1D8"/>
</svg>
