<svg width="32" height="32" viewBox="0 0 32 32" fill="none" xmlns="http://www.w3.org/2000/svg">
<path d="M8 0C6.9 0 6 0.9 6 2V30C6 31.1 6.9 32 8 32H28C29.1 32 30 31.1 30 30V8L22 0H8Z" fill="#E2E5E7"/>
<path d="M24 8H30L22 0V6C22 7.1 22.9 8 24 8Z" fill="#B0B7BD"/>
<path d="M30 14L24 8H30V14Z" fill="#CAD1D8"/>
<path d="M26 26C26 26.55 25.55 27 25 27H3C2.45 27 2 26.55 2 26V16C2 15.45 2.45 15 3 15H25C25.55 15 26 15.45 26 16V26Z" fill="#6BCCBA"/>
<path d="M6.58134 24.0638C6.24 24.0638 6.06934 23.8878 6.06934 23.5358V18.8798C6.06934 18.5331 6.24267 18.3598 6.58934 18.3598H8.51734C9.136 18.3598 9.61334 18.5145 9.94934 18.8238C10.2853 19.1331 10.4533 19.5651 10.4533 20.1198C10.4533 20.6745 10.2853 21.1091 9.94934 21.4238C9.61334 21.7331 9.136 21.8878 8.51734 21.8878H7.09334V23.5358C7.09334 23.8878 6.92267 24.0638 6.58134 24.0638ZM7.09334 21.0798H8.35734C9.09334 21.0798 9.46134 20.7598 9.46134 20.1198C9.46134 19.4851 9.09334 19.1678 8.35734 19.1678H7.09334V21.0798Z" fill="white"/>
<path d="M11.7681 24.0638C11.4481 24.0638 11.2881 23.8985 11.2881 23.5678V18.8078C11.2881 18.6425 11.3281 18.5171 11.4081 18.4318C11.4934 18.3411 11.6028 18.2958 11.7361 18.2958C11.8588 18.2958 11.9494 18.3198 12.0081 18.3678C12.0721 18.4105 12.1468 18.4851 12.2321 18.5918L15.0881 22.2958V18.7838C15.0881 18.4585 15.2481 18.2958 15.5681 18.2958C15.8828 18.2958 16.0401 18.4585 16.0401 18.7838V23.5838C16.0401 23.7331 16.0028 23.8505 15.9281 23.9358C15.8534 24.0211 15.7521 24.0638 15.6241 24.0638C15.5014 24.0638 15.4028 24.0398 15.3281 23.9918C15.2588 23.9438 15.1814 23.8665 15.0961 23.7598L12.2401 20.0478V23.5678C12.2401 23.8985 12.0828 24.0638 11.7681 24.0638Z" fill="white"/>
<path d="M19.9845 24.0798C19.3605 24.0798 18.8325 23.9625 18.4005 23.7278C17.9738 23.4931 17.6485 23.1598 17.4245 22.7278C17.2005 22.2958 17.0885 21.7838 17.0885 21.1918C17.0885 20.5945 17.2031 20.0798 17.4325 19.6478C17.6618 19.2105 17.9925 18.8745 18.4245 18.6398C18.8565 18.3998 19.3738 18.2798 19.9765 18.2798C20.2751 18.2798 20.5738 18.3171 20.8725 18.3918C21.1765 18.4611 21.4618 18.5811 21.7285 18.7518C21.8458 18.8211 21.9125 18.9145 21.9285 19.0318C21.9498 19.1438 21.9338 19.2505 21.8805 19.3518C21.8271 19.4531 21.7471 19.5251 21.6405 19.5678C21.5338 19.6051 21.4165 19.5865 21.2885 19.5118C21.0858 19.3945 20.8805 19.3091 20.6725 19.2558C20.4645 19.2025 20.2325 19.1758 19.9765 19.1758C19.3791 19.1758 18.9258 19.3491 18.6165 19.6958C18.3125 20.0425 18.1605 20.5411 18.1605 21.1918C18.1605 21.8478 18.3178 22.3465 18.6325 22.6878C18.9471 23.0291 19.4138 23.1998 20.0325 23.1998C20.2085 23.1998 20.3871 23.1865 20.5685 23.1598C20.7551 23.1278 20.9391 23.0825 21.1205 23.0238V21.7118H20.2405C19.9631 21.7118 19.8245 21.5838 19.8245 21.3278C19.8245 21.0771 19.9631 20.9518 20.2405 20.9518H21.5605C21.8378 20.9518 21.9765 21.0905 21.9765 21.3678V23.3118C21.9765 23.5571 21.8805 23.7145 21.6885 23.7838C21.4538 23.8691 21.1845 23.9411 20.8805 23.9998C20.5765 24.0531 20.2778 24.0798 19.9845 24.0798Z" fill="white"/>
<path d="M25 27H6V28H25C25.55 28 26 27.55 26 27V26C26 26.55 25.55 27 25 27Z" fill="#CAD1D8"/>
</svg>
