<svg width="32" height="32" viewBox="0 0 32 32" fill="none" xmlns="http://www.w3.org/2000/svg">
<path d="M8 0C6.9 0 6 0.9 6 2V30C6 31.1 6.9 32 8 32H28C29.1 32 30 31.1 30 30V8L22 0H8Z" fill="#E2E5E7"/>
<path d="M24 8H30L22 0V6C22 7.1 22.9 8 24 8Z" fill="#B0B7BD"/>
<path d="M30 14L24 8H30V14Z" fill="#CAD1D8"/>
<path d="M26 26C26 26.55 25.55 27 25 27H3C2.45 27 2 26.55 2 26V16C2 15.45 2.45 15 3 15H25C25.55 15 26 15.45 26 16V26Z" fill="#F15642"/>
<path d="M7.19804 24.0479C7.04337 24.0479 6.91804 24.0025 6.82204 23.9119C6.73137 23.8159 6.68604 23.6879 6.68604 23.5279V18.8479C6.68604 18.6932 6.7287 18.5732 6.81404 18.4879C6.9047 18.4025 7.02737 18.3599 7.18204 18.3599H9.15004C9.7527 18.3599 10.222 18.5119 10.558 18.8159C10.894 19.1145 11.062 19.5359 11.062 20.0799C11.062 20.6239 10.894 21.0479 10.558 21.3519C10.222 21.6559 9.7527 21.8079 9.15004 21.8079H7.71804V23.5279C7.71804 23.6879 7.67004 23.8159 7.57404 23.9119C7.48337 24.0025 7.35804 24.0479 7.19804 24.0479ZM9.02204 21.0159C9.73137 21.0159 10.086 20.7065 10.086 20.0879C10.086 19.4692 9.73137 19.1599 9.02204 19.1599H7.71804V21.0159H9.02204Z" fill="white"/>
<path d="M12.4633 23.9999C12.3086 23.9999 12.186 23.9572 12.0953 23.8719C12.01 23.7865 11.9673 23.6665 11.9673 23.5119V18.8479C11.9673 18.6932 12.01 18.5732 12.0953 18.4879C12.186 18.4025 12.3086 18.3599 12.4633 18.3599H14.0473C14.97 18.3599 15.6846 18.6079 16.1913 19.1039C16.7033 19.5945 16.9593 20.2852 16.9593 21.1759C16.9593 22.0719 16.7033 22.7679 16.1913 23.2639C15.6846 23.7545 14.97 23.9999 14.0473 23.9999H12.4633ZM13.9833 23.1599C15.2793 23.1599 15.9273 22.4985 15.9273 21.1759C15.9273 19.8585 15.2793 19.1999 13.9833 19.1999H12.9993V23.1599H13.9833Z" fill="white"/>
<path d="M18.5105 24.0479C18.3559 24.0479 18.2305 23.9999 18.1345 23.9039C18.0439 23.8079 17.9985 23.6825 17.9985 23.5279V18.8479C17.9985 18.6932 18.0412 18.5732 18.1265 18.4879C18.2172 18.4025 18.3399 18.3599 18.4945 18.3599H21.3025C21.6279 18.3599 21.7905 18.4985 21.7905 18.7759C21.7905 19.0479 21.6279 19.1839 21.3025 19.1839H19.0145V20.7199H21.1425C21.4679 20.7199 21.6305 20.8585 21.6305 21.1359C21.6305 21.4079 21.4679 21.5439 21.1425 21.5439H19.0145V23.5279C19.0145 23.6825 18.9692 23.8079 18.8785 23.9039C18.7879 23.9999 18.6652 24.0479 18.5105 24.0479Z" fill="white"/>
<path d="M25 27H6V28H25C25.55 28 26 27.55 26 27V26C26 26.55 25.55 27 25 27Z" fill="#CAD1D8"/>
</svg>
